<?xml version="1.0" encoding="UTF-8"?>
<svg version="1.1" viewBox="0 0 512 512" xmlns="http://www.w3.org/2000/svg" xmlns:cc="http://creativecommons.org/ns#" xmlns:dc="http://purl.org/dc/elements/1.1/" xmlns:rdf="http://www.w3.org/1999/02/22-rdf-syntax-ns#">
<path d="m112 504s-10.302-90.311 78.44-100.39h37.973v-17.493s26.712 11.473 53.76 1.28l0.85333 16.213h44.373s77.273 7.7143 72.6 100.39h-288z" fill="#fff"/>
<path d="m399.26 505.59h-284.52-5.5179l1.3774-23.53c2.6893-45.942 38.887-81.004 80.31-81.004h31.525v4.6933h-29.01c-39.923 0-74.81 33.748-77.402 77.97l-0.95673 16.323h283.44l-0.53006-16.323c-2.592-44.222-37.479-77.97-77.402-77.97h-38.831v-4.6933h41.093c41.423 0 77.621 35.061 80.31 81.004l1.3774 23.53h-5.2648z" fill="#3b434f"/>
<path d="m232.68 384.15v26.315c0 13.655 11.079 24.725 24.747 24.725s24.747-11.07 24.747-24.725v-25.772c1.4362-0.43713 2.8588-0.91193 4.2667-1.4249v27.376c0 16.149-13.085 29.24-29.227 29.24s-29.227-13.091-29.227-29.24v-28.187c1.5458 0.61124 3.1115 1.1734 4.6933 1.6924z" fill="#3b434f"/>
<path d="m227.77 434.76c1.5316 0 2.7733 1.2416 2.7733 2.7733v41.813c0 1.5317-1.2417 2.7733-2.7733 2.7733-1.5317 0-2.7733-1.2417-2.7733-2.7733v-41.813c0-1.5317 1.2417-2.7733 2.7733-2.7733z" fill="#3b434f"/>
<path d="m286.01 434.33c1.6495 0 2.9867 1.3372 2.9867 2.9867v26.027c0 1.6495-1.3372 2.9867-2.9867 2.9867-1.6495 0-2.9867-1.3372-2.9867-2.9867v-26.027c0-1.6495 1.3372-2.9867 2.9867-2.9867z" fill="#3b434f"/>
<path d="m227.77 479.13c0.82474 0 1.4933 0.66858 1.4933 1.4933v10.667c0 0.82474-0.66858 1.4933-1.4933 1.4933-0.82477 0-1.4933-0.66858-1.4933-1.4933v-10.667c0-0.82477 0.66858-1.4933 1.4933-1.4933z" fill="#3b434f"/>
<path d="m286.23 463.35c0.82477 0 1.4933 0.66861 1.4933 1.4933v10.667c0 0.82477-0.66858 1.4933-1.4933 1.4933-0.82474 0-1.4933-0.66858-1.4933-1.4933v-10.667c0-0.82474 0.66858-1.4933 1.4933-1.4933z" fill="#3b434f"/>
<path d="m211.77 373.65s-27.024 6.2052-27.024 6.2052-33.093 7.496-11.076 29.8c22.017 22.304 78.641 26.242 78.641 26.242s-14.971-7.0912-21.333-17.067l-2.1333-35.84-17.074-9.3405z" fill="#f5f3ef"/>
<path d="m253.16 438.03c-1.6768 2.1223-48.827 0.66302-81.493-27.733-23.653-20.561 11.947-32.427 11.947-32.427l26.027-5.9733 22.613 11.52s1.7067 34.56 1.7067 34.56c9.5195 14.926 21.899 16.637 19.2 20.053zm-23.467-18.347-2.56-36.267-13.653-7.68s-26.027 6.4-26.027 6.4-31.525 6.4645-11.52 25.173c21.589 20.19 61.528 25.609 65.707 25.173 4.3307-0.45151-2.4272 2.1264-11.947-12.8z" fill="#3b434f" fill-rule="evenodd"/>
<path d="m303.06 374.65s27.04 6.2238 27.04 6.2238 33.113 7.5185 11.083 29.889c-22.03 22.37-78.688 26.321-78.688 26.321s14.98-7.1125 21.346-17.118c0 0 2.1346-35.947 2.1346-35.947s17.085-9.3685 17.085-9.3685z" fill="#f5f3ef"/>
<path d="m261.64 438.8c1.6777 2.1286 48.856 0.66504 81.542-27.816 23.667-20.622-11.954-32.524-11.954-32.524l-26.042-5.9912-22.627 11.554-1.7077 34.664c-9.5251 14.971-21.912 16.687-19.211 20.113zm23.481-18.402s2.5615-36.375 2.5615-36.375 13.661-7.703 13.661-7.703 26.042 6.4192 26.042 6.4192 31.544 6.4839 11.527 25.249c-21.602 20.251-61.565 25.686-65.746 25.249-4.3333-0.45285 2.4286 2.1327 11.954-12.838z" fill="#3b434f" fill-rule="evenodd"/>
<path d="m259.21 116.47c53.078 0 94.972 49.601 93.61 109.2 0 0-1.4478 63.341-1.4478 63.341-1.2833 56.146-42.531 100.53-92.162 100.53-49.631 0-90.879-44.381-92.162-100.53 0 0-1.4478-63.341-1.4478-63.341-1.3622-59.597 40.532-109.2 93.61-109.2z" fill="#fff"/>
<path d="m357.09 223.7-1.5171 65.914c-1.3447 58.427-44.566 104.61-96.571 104.61-52.005 0-95.226-46.184-96.571-104.61l-1.5171-65.914c-1.4273-62.018 42.471-113.63 98.088-113.63s99.515 51.616 98.088 113.63zm-98.301-106.81c-52.352 0-93.674 49.214-92.33 108.35 0 0 1.428 62.846 1.428 62.846 1.2658 55.708 41.95 99.742 90.902 99.742 48.952 0 89.637-44.034 90.902-99.742l1.428-62.846c1.3436-59.131-39.978-108.35-92.33-108.35z" fill="#3b434f" fill-rule="evenodd"/>
<path d="m348.52 326.92c-1.2622 5.9695-17.847 60.098-14.846 36.667 3.0006-23.431-28.819 21.291-28.819 21.291-5.8799 6.0416-29.693 20.108-29.693 20.108v-5.9141l-17.466 7.0969-7.8598-7.0969-0.87332 7.0969c-2.3388-3.4653-49.779-35.484-49.779-35.484s8.1436 14.493 1.7466 7.0969c-0.22839-0.26407-0.46277-0.54697-0.70233-0.84702-6.471-8.1043-16.764-28.723-16.764-28.723l-1.7466 14.194c-15.434-30.003-14.846-67.42-14.846-67.42s-2.5956-78.141-2.5956-78.141h6.9865l2.5956 55.668 11.353 18.925c7.3413 10.732 27.073 5.9141 27.073 5.9141 57.022 39.565 93.444-2.3656 93.444-2.3656s24.702 5.4816 32.313 2.3656c7.6101-3.116 8.7087-80.617 8.7087-80.617h6.1132s-3.08 104.22-4.3422 110.19zm-40.951 6.0015c-1.2534-15.042-10.406-13.766-10.406-13.766-16.272 4.7446-29.045 7.3804-39.024 8.72v-0.098328c-9.9091-1.3287-22.593-3.9428-38.751-8.6486 0 0-9.0889-1.265-10.334 13.653 0 0-3.6497 11.533 8.6113 17.92 0 0 15.5 8.5334 15.5 8.5334s10.593 3.3267 10.334-9.3867c0 0-1.0781-1.8017 5.1667-3.4133h9.4724v0.28076h9.5392c6.2889 1.625 5.2032 3.505 5.2032 3.505-0.26083 12.818 10.406 9.4642 10.406 9.4642s15.61-8.6673 15.61-8.6673c12.347-6.4395 8.672-18.096 8.672-18.096z" fill="#3b434f" fill-rule="evenodd"/>
<path d="m305.08 327.33c-7.7552 6.7338-25.272 13.141-45.653 13.141-20.381 0-37.898-6.4069-45.653-13.141 0 0-0.79346-2.1833 0.3707-3.3474 1.1857-1.1857 3.0426-0.92764 3.0426-0.92764 7.7471 6.7384 21.851 12.296 42.24 12.296 20.389 0 34.493-5.5574 42.24-12.296 0 0 1.895-0.70395 2.8156 0.21661 1.773 1.773 0.59772 4.0585 0.59772 4.0585z" fill="#3b434f"/>
<path d="m245.35 350.71h27.307v4.2667h-27.307v-4.2667z" fill="#3b434f"/>
<path d="m160.81 233.31c-0.011779 6.71e-4 -1.0476-0.82654-3.0036-1.4424-0.9776-0.30725-2.1926-0.56-3.5775-0.62231-0.34586-0.015564-0.70181-0.019257-1.066-0.008912-0.36423 0.010346-0.73676 0.034699-1.1154 0.075135-0.75723 0.080902-1.5393 0.22629-2.3263 0.45267-3.1512 0.90558-6.3657 3.1073-8.2536 7.6518-0.94769 2.2723-1.5729 5.1306-1.7382 8.7068-0.041352 0.89407-0.053986 1.833-0.035859 2.8189 0.018158 0.98587 0.067109 2.0187 0.14886 3.1005 0.16342 2.1635 0.45853 4.5232 0.89822 7.0944-0.009613-0.002533-0.4101 7.77 2.3686 16.701 2.6122 8.732 8.8851 19.458 20.467 22.524-1.332-22.179-1.3734-44.775-2.7661-67.051z" fill="#fff"/>
<path d="m162.13 234.21s-20.176-6.2517-19.466 14.491c0 0 3.0039 30.077 4.3083 32.849 0 0 7.9238 17.512 21.001 18.288 12.781 0.75851 0 0 0 0s0.15872 5.6445 0.15872 5.6445-22.985-2.947-27.424-29.435l-3.5039-24.063s-2.7206-31.845 23.669-23.748c25.709 7.8879 0 0 0 0l1.2567 5.9725" fill="#3b434f"/>
<path d="m155.47 275.99s-1.1292 0.85333-2.0992 0.85333-2.0854-0.85333-2.0854-0.85333l-2.0822-20.983s2.8729-10.333 15.064-4.8725c0 0 0.28818 5.9997 0.28818 5.9997s-10.696-3.7932-10.474 0.93021c0.21289 4.5465 1.3893 18.925 1.3893 18.925z" fill="#3b434f"/>
<path d="m356.81 233.36c0.01184 6.71e-4 1.0522-0.82596 3.0168-1.4414 0.9819-0.30704 2.2022-0.5596 3.5931-0.62189 0.34735-0.015533 0.70486-0.019226 1.0707-0.00888 0.36581 0.010314 0.73996 0.034667 1.1203 0.075073 0.76053 0.080841 1.5461 0.22614 2.3365 0.45236 3.1649 0.90497 6.3936 3.1052 8.2898 7.6466 0.95184 2.2708 1.5798 5.1271 1.7458 8.7009 0.041535 0.89346 0.05423 1.8318 0.036041 2.817-0.018249 0.9852-0.067413 2.0173-0.14954 3.0984-0.16412 2.1621-0.46054 4.5201-0.90216 7.0896 0.009674-0.002533 0.4119 7.7647-2.379 16.69-2.6237 8.726-8.924 19.445-20.557 22.508 1.3379-22.164 1.3794-44.744 2.7782-67.006z" fill="#fff"/>
<path d="m355.48 234.26s20.265-6.2474 19.552 14.481c0 0-3.0171 30.057-4.3272 32.827 0 0-7.9585 17.5-21.093 18.276-12.837 0.758 0 0 0 0s-0.15942 5.6407-0.15942 5.6407 23.085-2.945 27.544-29.415l3.5192-24.046s2.7325-31.823-23.773-23.732c-25.822 7.8825 0 0 0 0l-1.2622 5.9684" fill="#3b434f"/>
<path d="m362.17 276.01s1.1341 0.85275 2.1083 0.85275 2.0945-0.85275 2.0945-0.85275 2.0913-20.969 2.0913-20.969-2.8855-10.326-15.13-4.8692c0 0-0.28943 5.9957-0.28943 5.9957s10.742-3.7906 10.52 0.92957c-0.21381 4.5435-1.3953 18.913-1.3953 18.913z" fill="#3b434f"/>
<path d="m266.89 274.33h1.4933c3.0875 4.193 4.3436 10.636 5.9733 16.213 0.50507 1.7283 0.015076 4.7513-0.42667 5.9733-1.6178 4.4755-6.6976 4.3952-10.88 6.4-1.1232 0.53845-1.9587 1.4678-3.4133 1.7067-0.9483-0.83533-2.0933-0.99939-2.56-2.3467-1.1523-1.5867 0.33282-2.5776 1.4933-3.2 2.1062-1.1296 8.6082-2.2429 9.3867-4.2667 0.96323-1.0957 0.32275-4.3902 0-5.5467-0.8266-2.9622-1.2234-5.4351-2.3466-8.1067-0.74615-1.7745-2.0562-3.6455-1.28-5.76 0.64319-0.27618 2.0333-0.59021 2.56-1.0666z" fill="#3b434f" fill-rule="evenodd"/>
<path d="m207.8 241.48h5.9734c3.299 0 5.9733 2.6743 5.9733 5.9733 0 3.299-2.6743 5.9733-5.9733 5.9733h-5.9734c-3.299 0-5.9733-2.6743-5.9733-5.9733 0-3.299 2.6743-5.9733 5.9733-5.9733z" fill="#3b434f"/>
<path d="m305.08 241.48h5.9734c3.299 0 5.9733 2.6743 5.9733 5.9733 0 3.299-2.6743 5.9733-5.9733 5.9733h-5.9734c-3.299 0-5.9733-2.6743-5.9733-5.9733 0-3.299 2.6743-5.9733 5.9733-5.9733z" fill="#3b434f"/>
<path d="m310.63 269.64c5.891 0 10.667 4.7756 10.667 10.667s-4.7756 10.667-10.667 10.667c-5.8911 0-10.667-4.7756-10.667-10.667s4.7756-10.667 10.667-10.667z" fill="#edf1f1"/>
<path d="m207.37 269.64c5.891 0 10.667 4.7756 10.667 10.667s-4.7756 10.667-10.667 10.667c-5.8911 0-10.667-4.7756-10.667-10.667s4.7756-10.667 10.667-10.667z" fill="#edf1f1"/>
<path d="m351.94 228.88c-0.57718 4.9299-1.0843 10.963-2.1502 16.356-3.1876 16.129-17.046 31.071-40.71 32.774-23.664 1.7026-43.804-10.21-44.984-26.608-0.2001-2.7803-0.73541-5.9003-1.1462-8.9337-3.3488-1.8566-6.8004-1.8608-10.355-0.012635-0.4151 3.102-0.97058 6.3041-1.1754 9.1509-1.1839 16.452-21.387 28.405-45.126 26.697-23.738-1.7083-37.641-16.701-40.838-32.883-1.0693-5.4115-1.578-11.464-2.157-16.41l-3.4883-0.25104s0.48999-6.8091 0.48999-6.8091l87.356 6.2863c1.9612 0.24805 3.2653 1.0891 4.1051 2.3448 4.0839 1.7877 8.0501 1.7948 11.899 0.021118 0.83222-1.3364 2.1538-2.2361 4.1875-2.4933l86.233-6.2045 0.84845-0.061036s0.48846 6.7866 0.48846 6.7866l-3.4774 0.25021zm-111.92 7.3577-55.732-4.0105c-7.2892-0.62842-9.873 7.5628-10.322 13.806-0.94714 13.162 13.718 24.942 32.756 26.312 19.038 1.37 35.239-8.1892 36.186-21.351 0.44925-6.243 2.4884-10.099-2.8879-14.756zm101.29 9.6091c-0.44785-6.2224-3.0234-14.387-10.29-13.76l-55.556 3.9973c-5.3594 4.6425-3.3267 8.4853-2.8789 14.708 0.94418 13.118 17.094 22.646 36.072 21.281 18.978-1.3654 33.597-13.107 32.653-26.225z" fill="#3b444f" fill-rule="evenodd"/>
<path d="m166.02 261.11s11.87-51.996 22.198-66.219c10.329-14.223 19.267-17.625 23.906-18.06 4.6391-0.43503 41.172 10.364 91.355-2.0067 0 0 19.787-0.7897 28.175 19.063 0 0 17.684 31.638 20.491 63.209h3.4151s7.2372-55.343 4.269-88.292c-2.9683-32.949-46.104-49.162-46.104-49.162l9.3916-7.0232s-21.927-6.7782-30.736-3.0099l6.8303-14.046s-44.25 0.088195-69.157 20.066l0.85379-10.033s-87.79 13.462-69.157 153.51l4.2689 2.0066z" fill="#3b434f"/>
</svg>
