<?xml version="1.0" encoding="UTF-8"?>
<svg version="1.1" viewBox="0 0 512 512" xmlns="http://www.w3.org/2000/svg" xmlns:cc="http://creativecommons.org/ns#" xmlns:dc="http://purl.org/dc/elements/1.1/" xmlns:rdf="http://www.w3.org/1999/02/22-rdf-syntax-ns#">
<path d="m112 502s-11.989-92.457 80.427-100.81h22.187s7.2617-4.6933 12.373-4.6933v-13.227s27.693 13.808 56.32 0.42667v11.947s1.2167-2.2867 13.653 5.9733h33.28s70.76 8.7285 70.76 100.39h-289z" fill="#fff"/>
<path d="m398.26 503.59h-284.52-5.5179l1.3774-23.53c2.6893-45.942 38.887-81.004 80.31-81.004h28.484c-1.8478 1.5283-3.202 3.1136-4.1759 4.6933h-21.793c-39.923 0-74.81 33.748-77.402 77.97l-0.95673 16.323h283.44l-0.53006-16.323c-2.592-44.222-37.479-77.97-77.402-77.97h-21.812c-0.83411-1.5681-2.0202-3.1533-3.6761-4.6933h27.749c41.423 0 77.621 35.061 80.31 81.004l1.3774 23.53h-5.2648zm-112.61-99.84h-1.4904v-4.6933h1.656c-0.099 1.2198-0.16263 2.7572-0.16559 4.6933zm-60.011-4.6933h1.774v4.6933h-1.5333c-0.022919-1.9931-0.11426-3.5226-0.24078-4.6933z" fill="#3b434f" fill-rule="evenodd"/>
<path d="m269.23 464.33c1.6495 0 2.9867 1.3372 2.9867 2.9867 0 1.6495-1.3372 2.9867-2.9867 2.9867-1.6495 0-2.9867-1.3372-2.9867-2.9867 0-1.6495 1.3372-2.9867 2.9867-2.9867z" fill="#3b434f"/>
<path d="m269.23 483.96c1.6495 0 2.9867 1.3372 2.9867 2.9867 0 1.6495-1.3372 2.9867-2.9867 2.9867-1.6495 0-2.9867-1.3372-2.9867-2.9867 0-1.6495 1.3372-2.9867 2.9867-2.9867z" fill="#3b434f"/>
<path d="m303.79 424.23s-21.76 32.427-21.76 32.427c-5.9194-18.347-23.04-11.52-23.04-11.52v54.188c0 1.413-1.3372 2.5585-2.9867 2.5585s-2.9867-1.1455-2.9867-2.5585v-54.189c-0.13852-0.054932-17.123-6.7511-23.012 11.521 0 0-21.736-32.427-21.736-32.427s-8.4081-21.377 17.048-30.72v-9.8134h4.8136v30.884c0.61798 5.3163 4.2784 20.464 25.873 25.436 21.618-4.972 25.283-20.12 25.901-25.436v-30.884h4.8188v9.8134c25.484 9.3433 17.067 30.72 17.067 30.72zm-74.037 2.8705c-1.1602-1.3139-2.8314-4.5772-2.8314-4.5772s-1.6045-5.34-1.6045-7.68v-10.822c-0.36288-4.881-1.2786-4.9644-1.2786-4.9644-18.994 9.3552-10.655 23.893-10.655 23.893l15.77 24.747c6.1581-10.434 12.786-8.5333 12.786-8.5333-5.852-2.9826-9.6899-7.6115-12.186-12.063zm58.251-28.044s-0.91672 0.083435-1.28 4.9644v10.822c0 2.34-1.6063 7.68-1.6063 7.68s-1.673 3.2633-2.8345 4.5772c-2.4989 4.4513-6.341 9.0802-12.199 12.063 0 0 6.6352-1.9012 12.8 8.5333l15.787-24.747s8.3477-14.538-10.667-23.893z" fill="#3b434f" fill-rule="evenodd"/>
<path d="m256 124c53.292 0 93.988 29.97 93.988 101.7l-2.3241 61.963c-14.199 79.549-49.885 98.34-91.664 98.34-41.781 0-79.099-19.577-91.664-98.34l-2.3241-61.963c0-71.422 40.696-101.7 93.988-101.7z" fill="#fff"/>
<path d="m352.12 287.31c-14.889 82.908-52.311 102.49-96.12 102.49-43.812 0-82.945-20.404-96.12-102.49 0 0-2.437-64.579-2.437-64.579 0-74.437 42.674-106 98.557-106s98.557 31.236 98.557 106c0 0-2.437 64.579-2.437 64.579zm-96.12-165.03c-52.247 0-92.144 30.276-92.144 101.69 0 0 2.2785 61.956 2.2785 61.956 12.318 78.753 48.904 98.328 89.866 98.328 40.959 0 75.945-18.788 89.866-98.328 0 0 2.2785-61.956 2.2785-61.956 0-71.723-39.897-101.69-92.144-101.69z" fill="#3b434f" fill-rule="evenodd"/>
<path d="m302.08 325.33c-7.7552 6.7338-25.272 13.141-45.653 13.141-20.381 0-37.898-6.4069-45.653-13.141 0 0-0.79346-2.1833 0.3707-3.3474 1.1857-1.1857 3.0426-0.92764 3.0426-0.92764 7.7471 6.7384 21.851 12.296 42.24 12.296 20.389 0 34.493-5.5574 42.24-12.296 0 0 1.895-0.70395 2.8156 0.21661 1.773 1.773 0.59772 4.0585 0.59772 4.0585z" fill="#3b434f"/>
<path d="m242.35 348.71h27.307v4.2667h-27.307v-4.2667z" fill="#3b434f"/>
<path d="m157.81 231.31c-0.011779 6.71e-4 -1.0476-0.82654-3.0036-1.4424-0.9776-0.30725-2.1926-0.56-3.5775-0.62231-0.34586-0.015564-0.70181-0.019257-1.066-0.008912-0.36423 0.010346-0.73676 0.034699-1.1154 0.075135-0.75723 0.080902-1.5393 0.22629-2.3263 0.45267-3.1512 0.90558-6.3657 3.1073-8.2536 7.6518-0.94769 2.2723-1.5729 5.1306-1.7382 8.7068-0.041352 0.89407-0.053986 1.833-0.035859 2.8189 0.018158 0.98587 0.067109 2.0187 0.14886 3.1005 0.16342 2.1635 0.45853 4.5232 0.89822 7.0944-0.009613-0.002533-0.4101 7.77 2.3686 16.701 2.6122 8.732 8.8851 19.458 20.467 22.524-1.332-22.179-1.3734-44.775-2.7661-67.051z" fill="#fff"/>
<path d="m159.13 232.21s-20.176-6.2517-19.466 14.491c0 0 3.0039 30.077 4.3083 32.849 0 0 7.9238 17.512 21.001 18.288 12.781 0.75851 0 0 0 0s0.15872 5.6445 0.15872 5.6445-22.985-2.947-27.424-29.435l-3.5039-24.063s-2.7206-31.845 23.669-23.748c25.709 7.8879 0 0 0 0l1.2567 5.9725" fill="#3b434f"/>
<path d="m152.47 273.99s-1.1292 0.85333-2.0992 0.85333-2.0854-0.85333-2.0854-0.85333l-2.0822-20.983s2.8729-10.333 15.064-4.8725c0 0 0.28818 5.9997 0.28818 5.9997s-10.696-3.7932-10.474 0.93021c0.21289 4.5465 1.3893 18.925 1.3893 18.925z" fill="#3b434f"/>
<path d="m352.48 232.26s20.265-6.2474 19.552 14.481c0 0-3.0171 30.057-4.3272 32.827 0 0-7.9585 17.5-21.093 18.276-12.837 0.758 0 0 0 0s-0.15942 5.6407-0.15942 5.6407 23.085-2.945 27.544-29.415l3.5192-24.046s2.7325-31.823-23.773-23.732c-25.822 7.8825 0 0 0 0l-1.2622 5.9684" fill="#3b434f"/>
<path d="m359.17 274.01s1.1341 0.85275 2.1083 0.85275 2.0945-0.85275 2.0945-0.85275 2.0913-20.969 2.0913-20.969-2.8855-10.326-15.13-4.8692c0 0-0.28943 5.9957-0.28943 5.9957s10.742-3.7906 10.52 0.92957c-0.21381 4.5435-1.3953 18.913-1.3953 18.913z" fill="#3b434f"/>
<path d="m352.34 231.35c0.011811 7.02e-4 1.0488-0.83035 3.007-1.449 0.9787-0.30868 2.195-0.56259 3.5815-0.62521 0.34622-0.015655 0.70258-0.019348 1.0672-0.008941 0.36462 0.010376 0.73755 0.034851 1.1166 0.07547 0.75809 0.081299 1.541 0.22732 2.3289 0.45477 3.1547 0.90976 6.3728 3.1217 8.2628 7.6872 0.94879 2.2829 1.5746 5.1544 1.7401 8.7471 0.041413 0.89819 0.054047 1.8415 0.035889 2.8319s-0.067169 2.028-0.14902 3.1148c-0.1636 2.1736-0.45902 4.5441-0.8992 7.1272 0.009583-0.002533 0.41052 7.806-2.3712 16.778-2.6152 8.7724-8.895 19.548-20.49 22.628 1.3335-22.282 1.3749-44.982 2.7692-67.362z" fill="#fff"/>
<path d="m352.92 232.26s20.265-6.2474 19.552 14.481c0 0-3.0171 30.057-4.3272 32.827 0 0-7.9585 17.5-21.093 18.276-12.837 0.75806 0 0 0 0l-0.15939 5.6407s23.085-2.945 27.544-29.415l3.5192-24.046s2.7325-31.823-23.773-23.732c-25.822 7.8825 0 0 0 0s-1.2622 5.9684-1.2622 5.9684" fill="#3b434f"/>
<path d="m359.61 274.01h4.2029l2.0913-20.969s-2.8855-10.326-15.13-4.8692c0 0-0.28943 5.9957-0.28943 5.9957s10.742-3.7906 10.52 0.9296c-0.21381 4.5434-1.3953 18.913-1.3953 18.913z" fill="#3b434f"/>
<path d="m263.89 272.33h1.4933c3.0875 4.193 4.3436 10.636 5.9733 16.213 0.50507 1.7283 0.015076 4.7513-0.42667 5.9733-1.6178 4.4755-6.6976 4.3952-10.88 6.4-1.1232 0.53845-1.9587 1.4678-3.4133 1.7067-0.9483-0.83533-2.0933-0.99939-2.56-2.3467-1.1523-1.5867 0.33282-2.5776 1.4933-3.2 2.1062-1.1296 8.6082-2.2429 9.3867-4.2667 0.96323-1.0957 0.32275-4.3902 0-5.5467-0.8266-2.9622-1.2234-5.4351-2.3466-8.1067-0.74615-1.7745-2.0562-3.6455-1.28-5.76 0.64319-0.27618 2.0333-0.59021 2.56-1.0666z" fill="#3b434f" fill-rule="evenodd"/>
<path d="m209.07 236.07c4.7128 0 8.5333 3.8205 8.5333 8.5333 0 4.7128-3.8205 8.5333-8.5333 8.5333-4.7128 0-8.5334-3.8205-8.5334-8.5333 0-4.7128 3.8205-8.5333 8.5334-8.5333z" fill="#3b434f"/>
<path d="m303.79 236.07c4.7128 0 8.5333 3.8205 8.5333 8.5333 0 4.7128-3.8205 8.5333-8.5333 8.5333-4.7128 0-8.5333-3.8205-8.5333-8.5333 0-4.7128 3.8205-8.5333 8.5333-8.5333z" fill="#3b434f"/>
<path d="m307.63 267.64c5.891 0 10.667 4.7756 10.667 10.667s-4.7756 10.667-10.667 10.667c-5.8911 0-10.667-4.7756-10.667-10.667s4.7756-10.667 10.667-10.667z" fill="#edf1f1"/>
<path d="m204.37 267.64c5.891 0 10.667 4.7756 10.667 10.667s-4.7756 10.667-10.667 10.667c-5.8911 0-10.667-4.7756-10.667-10.667s4.7756-10.667 10.667-10.667z" fill="#edf1f1"/>
<path d="m165.64 216.42s28.093-14.243 24.988-63.222c0 0 44.941 49.241 153.27 34.231l5.12 46.08s63.682-118-50.347-145.07c-111.59-26.488-112.88 43.396-112.88 43.396s-34.222-5.1138-37.079 28.194c-2.8575 33.307 7.4502 68.357 7.4502 68.357l8.5333 6.8267 0.94391-18.796z" fill="#c1bfbd"/>
<path d="m348.16 238.63-6.4-48.213c-108.33 13.144-148.15-30.818-148.15-30.818-1.6127 48.979-25.415 58.102-25.415 58.102s-1.7972 19.649-1.7972 19.649l-11.947-6.8267s-11.38-37.165-8.7302-70.49c2.8575-35.939 37.506-30.754 37.506-30.754s4.1128-71.836 115.44-44.25c121.5 30.107 49.493 153.6 49.493 153.6zm-50.347-147.63c-111.91-25.128-109.65 44.8-109.65 44.8s-33.606-9.0774-36.464 24.23c-2.8575 33.307 6.5969 66.223 6.5969 66.223l3.84 2.9867 0.51724-14.529s28.141-9.6722 24.988-67.916c0 0 40.163 52.619 158.81 37.645l4.2667 38.4s51.877-108.31-52.907-131.84z" fill="#3b434f" fill-rule="evenodd"/>
<path d="m283.33 224.44s25.545-14.605 43.793 1.4861c0 0 4.8269 0.74817 4.8269 0.74817s-6.1825-22.497-51.2-7.8688l1.2533 4.1936m1 0s25.987-14.926 43.12 3.927l8.8269-0.25183s-11.009-24.032-56.2-8.8688c0 0 4.2533 6.1936 4.2533 6.1936" fill="#3b434f"/>
<path d="m228.44 224.53s-25.459-14.476-43.647 1.4729c0 0-4.8108 0.74155-4.8108 0.74155s6.1618-22.298 51.029-7.7992l-1.2491 4.1565m-0.99664 0s-25.901-14.794-42.976 3.8923l-8.7974-0.2496s10.972-23.819 56.012-8.7903c0 0-4.2391 6.1388-4.2391 6.1388" fill="#3b434f"/>
</svg>
