<?xml version="1.0" encoding="UTF-8"?>
<svg version="1.1" viewBox="0 0 512 512" xmlns="http://www.w3.org/2000/svg" xmlns:cc="http://creativecommons.org/ns#" xmlns:dc="http://purl.org/dc/elements/1.1/" xmlns:rdf="http://www.w3.org/1999/02/22-rdf-syntax-ns#">
<path d="m111 504s-10.302-90.311 78.44-100.39h37.973v-17.493s26.712 11.473 53.76 1.28l0.85333 16.213h44.373s77.273 7.7143 72.6 100.39h-288z" fill="#fff"/>
<path d="m398.26 505.59h-284.52-5.5179l1.3774-23.53c2.6893-45.942 38.887-81.004 80.31-81.004h37.498v4.6933h-34.984c-39.923 0-74.81 33.748-77.402 77.97l-0.95673 16.323h283.44l-0.53006-16.323c-2.592-44.222-37.479-77.97-77.402-77.97h-35.418v-4.6933h37.679c41.423 0 77.621 35.061 80.31 81.004l1.3774 23.53h-5.2648z" fill="#3b434f"/>
<path d="m230.4 384.15v26.315c0 13.655 11.079 24.725 24.747 24.725 13.667 0 24.747-11.07 24.747-24.725v-25.772c1.4362-0.43713 2.8588-0.91193 4.2667-1.4249v27.376c0 16.149-13.085 29.24-29.227 29.24s-29.227-13.091-29.227-29.24v-28.187c1.5458 0.61124 3.1115 1.1734 4.6933 1.6924z" fill="#3b434f"/>
<path d="m331.72 457.49-12.085 25.207c-0.61124 1.2749-2.1403 1.8129-3.4151 1.2017-1.2749-0.61124-1.8129-2.1403-1.2017-3.4152l11.672-24.345-9.1202-15.797c-0.70691-1.2244-0.28741-2.7901 0.93701-3.497 1.2245-0.70694 2.7901-0.28742 3.497 0.93701l9.8133 16.997c0.50571 0.87588 0.43237 1.9249-0.097077 2.7108z" fill="#3b434f"/>
<path d="m178.36 457.51 12.15 25.285c0.6145 1.2788 2.1517 1.8185 3.4334 1.2054 1.2817-0.61313 1.8226-2.1469 1.2081-3.4257l-11.735-24.42 9.1691-15.845c0.71069-1.2282 0.28894-2.7987-0.94205-3.5078-1.231-0.70911-2.8051-0.2883-3.5158 0.93991l-9.866 17.05c-0.50842 0.87857-0.43472 1.9308 0.097564 2.7191z" fill="#3b434f"/>
<path d="m225.71 400.2h4.6933v103.68h-4.6933v-103.68z" fill="#3b434f"/>
<path d="m279.89 401.05h4.6933v103.68h-4.6933v-103.68z" fill="#3b434f"/>
<path d="m243 451 12-13 13 13-7 7 11 45h-34l12-45-7-7z" fill="#3b434f"/>
<path d="m269.7 503.69-12.094-45.135 2.5147-0.75442 1.6674-1.7716 12.791 47.737s-4.8793-0.076233-4.8793-0.076233zm-34.114-0.53302 12.626-46.909 0.81555 0.69904 2.56 1.7067s0.84406 0.084412 0.84406 0.084412l-11.976 44.495s-4.8694-0.07608-4.8694-0.07608z" fill="#3b434f" fill-rule="evenodd"/>
<path d="m284.15 463.79-3.3187 3.3187-12.913-12.913c-2.4919 3.9578-6.8912 6.5935-11.914 6.5935-5.2254 0-9.7758-2.8527-12.205-7.0799l-13.48 13.48-3.3276-3.3276 26.539-26.539 2.0756-1.9244 2.0756 1.9244 26.468 26.468zm-37.74-12.691c1.7015 3.4644 5.2606 5.8504 9.3811 5.8504 4.0278 0 7.5142-2.2832 9.2589-5.6215l-9.4344-9.4344-9.2056 9.2056z" fill="#3b434f" fill-rule="evenodd"/>
<path d="m256.21 116.47c53.078 0 94.972 49.601 93.61 109.2 0 0-1.4478 63.341-1.4478 63.341-1.2833 56.146-42.531 100.53-92.162 100.53-49.631 0-90.879-44.381-92.162-100.53 0 0-1.4478-63.341-1.4478-63.341-1.3622-59.597 40.532-109.2 93.61-109.2z" fill="#fff"/>
<path d="m354.09 223.7-1.5171 65.914c-1.3447 58.427-44.566 104.61-96.571 104.61-52.005 0-95.226-46.184-96.571-104.61l-1.5171-65.914c-1.4273-62.018 42.471-113.63 98.088-113.63s99.515 51.616 98.088 113.63zm-98.301-106.81c-52.352 0-93.674 49.214-92.33 108.35 0 0 1.428 62.846 1.428 62.846 1.2658 55.708 41.95 99.742 90.902 99.742 48.952 0 89.637-44.034 90.902-99.742l1.428-62.846c1.3436-59.131-39.978-108.35-92.33-108.35z" fill="#3b434f" fill-rule="evenodd"/>
<path d="m302.08 327.33c-7.7552 6.7338-25.272 13.141-45.653 13.141-20.381 0-37.898-6.4069-45.653-13.141 0 0-0.79346-2.1833 0.3707-3.3474 1.1857-1.1857 3.0426-0.92764 3.0426-0.92764 7.7471 6.7384 21.851 12.296 42.24 12.296 20.389 0 34.493-5.5574 42.24-12.296 0 0 1.895-0.70395 2.8156 0.21661 1.773 1.773 0.59772 4.0585 0.59772 4.0585z" fill="#3b434f"/>
<path d="m242.35 350.71h27.307v4.2667h-27.307v-4.2667z" fill="#3b434f"/>
<path d="m157.81 233.31c-0.011779 6.71e-4 -1.0476-0.82654-3.0036-1.4424-0.9776-0.30725-2.1926-0.56-3.5775-0.62231-0.34586-0.015564-0.70181-0.019257-1.066-0.008912-0.36423 0.010346-0.73676 0.034699-1.1154 0.075135-0.75723 0.080902-1.5393 0.22629-2.3263 0.45267-3.1512 0.90558-6.3657 3.1073-8.2536 7.6518-0.94769 2.2723-1.5729 5.1306-1.7382 8.7068-0.041352 0.89407-0.053986 1.833-0.035859 2.8189 0.018158 0.98587 0.067109 2.0187 0.14886 3.1005 0.16342 2.1635 0.45853 4.5232 0.89822 7.0944-0.009613-0.002533-0.4101 7.77 2.3686 16.701 2.6122 8.732 8.8851 19.458 20.467 22.524-1.332-22.179-1.3734-44.775-2.7661-67.051z" fill="#fff"/>
<path d="m159.13 234.21s-20.176-6.2517-19.466 14.491c0 0 3.0039 30.077 4.3083 32.849 0 0 7.9238 17.512 21.001 18.288 12.781 0.75851 0 0 0 0s0.15872 5.6445 0.15872 5.6445-22.985-2.947-27.424-29.435l-3.5039-24.063s-2.7206-31.845 23.669-23.748c25.709 7.8879 0 0 0 0l1.2567 5.9725" fill="#3b434f"/>
<path d="m152.47 275.99s-1.1292 0.85333-2.0992 0.85333-2.0854-0.85333-2.0854-0.85333l-2.0822-20.983s2.8729-10.333 15.064-4.8725c0 0 0.28818 5.9997 0.28818 5.9997s-10.696-3.7932-10.474 0.93021c0.21289 4.5465 1.3893 18.925 1.3893 18.925z" fill="#3b434f"/>
<path d="m353.81 233.36c0.01184 6.71e-4 1.0522-0.82596 3.0168-1.4414 0.9819-0.30704 2.2022-0.5596 3.5931-0.62189 0.34735-0.015533 0.70486-0.019226 1.0707-0.00888 0.36581 0.010314 0.73996 0.034667 1.1203 0.075073 0.76053 0.080841 1.5461 0.22614 2.3365 0.45236 3.1649 0.90497 6.3936 3.1052 8.2898 7.6466 0.95184 2.2708 1.5798 5.1271 1.7458 8.7009 0.041535 0.89346 0.05423 1.8318 0.036041 2.817-0.018249 0.9852-0.067413 2.0173-0.14954 3.0984-0.16412 2.1621-0.46054 4.5201-0.90216 7.0896 0.009674-0.002533 0.4119 7.7647-2.379 16.69-2.6237 8.726-8.924 19.445-20.557 22.508 1.3379-22.164 1.3794-44.744 2.7782-67.006z" fill="#fff"/>
<path d="m352.48 234.26s20.265-6.2474 19.552 14.481c0 0-3.0171 30.057-4.3272 32.827 0 0-7.9585 17.5-21.093 18.276-12.837 0.758 0 0 0 0s-0.15942 5.6407-0.15942 5.6407 23.085-2.945 27.544-29.415l3.5192-24.046s2.7325-31.823-23.773-23.732c-25.822 7.8825 0 0 0 0l-1.2622 5.9684" fill="#3b434f"/>
<path d="m359.17 276.01s1.1341 0.85275 2.1083 0.85275 2.0945-0.85275 2.0945-0.85275 2.0913-20.969 2.0913-20.969-2.8855-10.326-15.13-4.8692c0 0-0.28943 5.9957-0.28943 5.9957s10.742-3.7906 10.52 0.92957c-0.21381 4.5435-1.3953 18.913-1.3953 18.913z" fill="#3b434f"/>
<path d="m283.33 226.44s25.545-14.605 43.793 1.4861c0 0 4.8269 0.74817 4.8269 0.74817s-6.1825-22.497-51.2-7.8688l1.2533 4.1936m1 0s25.987-14.926 43.12 3.927l8.8269-0.25183s-11.009-24.032-56.2-8.8688c0 0 4.2533 6.1936 4.2533 6.1936" fill="#3b434f"/>
<path d="m228.44 226.53s-25.459-14.476-43.647 1.4729c0 0-4.8108 0.74155-4.8108 0.74155s6.1618-22.298 51.029-7.7992l-1.2491 4.1565m-0.99664 0s-25.901-14.794-42.976 3.8923l-8.7974-0.2496s10.972-23.819 56.012-8.7903c0 0-4.2391 6.1388-4.2391 6.1388" fill="#3b434f"/>
<path d="m350.59 233.8s39.387-103.34-81.898-126.89c0 0-25.387-1.3748-45.215-25.007 0 0-14.165 19.418-5.9717 34.269 0 0-10.426 9.0954-38.39 1.8524 0 0-4.2322 9.0399-0.85312 19.45 0 0-35.173 15.209-18.411 83.239 0.16058 0.65155 0.32587 1.308 0.49603 1.9693 0 0 15.049-60.161 25.593-61.128 0 0 56.814 32.616 104.93-2.7785 0 0 23.758 31.698 52.893 33.342 0 0 5.2697 20.441 6.8249 41.678z" fill="#c1bfbd"/>
<path d="m353.28 234.65c-1.184 3.2125-5.12 2.1333-5.12 2.1333-1.5551-21.237-6.4-41.813-6.4-41.813-29.518-3.7194-51.627-32-51.627-32-47.834 32.875-104.11 1.28-104.11 1.28-11.298 9.3672-22.613 58.88-22.613 58.88-0.17017-0.66135-5.8127 0.65155-5.9733 0-16.762-68.03 17.493-87.04 17.493-87.04-3.3791-10.41 2.1334-21.333 2.1334-21.333 27.964 7.243 36.693 0.85333 36.693 0.85333-7.3926-18.518 8.96-37.547 8.96-37.547 19.828 23.632 46.933 26.027 46.933 26.027 111.55 22.354 91.535 109.1 83.627 130.56zm-86.187-125.01s-22.83-1.2421-43.093-22.613c0 0-11.607 15.443-3.4133 30.293 0 0-11.716 11.51-39.68 4.2667 0 0-2.2116 5.7943 0 16.64 0 0-31.361 16.19-20.48 71.253 0.13013 0.6583-0.17017-0.23468 0 0.42667 0 0 13.118-50.808 25.173-51.2 0 0 58.862 33.324 106.24-3.84 0 0 25.052 33.342 54.187 34.987 0 0 2.5273 7.1455 5.5467 28.16 0 0 25.551-87.406-84.48-108.37z" fill="#3b434f" fill-rule="evenodd"/>
<path d="m231.09 104.95c0.78223 0.015045 0.78058 0.54733 1.0091 1.1017 0.34094 0.82706 0.6459 1.6689 1.0406 2.4552 0.59818 1.1916 1.212 2.3737 1.9236 3.4625 0.59839 0.9155 1.2475 1.7903 1.8921 2.6598 0.37222 0.50214 0.8219 0.94757 1.1983 1.4479 0.15015 0.19962 0.3511 0.36386 0.50455 0.56659 0.052551 0.047211 0.10513 0.094422 0.15768 0.14166 0.19293 0.2547 0.43817 0.45395 0.63068 0.70822 0.21024 0.20459 0.4205 0.40921 0.63071 0.6138 0.32828 0.32764 0.63623 0.69455 1.0091 0.9758 0.078827 0.083923 0.15768 0.16788 0.23651 0.2518 0.2962 0.2236 0.53824 0.49991 0.83566 0.72397 0.047302 0.05246 0.094604 0.10495 0.14191 0.15741 0.42969 0.32251 0.8024 0.71854 1.2299 1.0387 0.69415 0.51993 1.3505 1.0712 2.0656 1.5739 0.47424 0.3334 0.94202 0.7034 1.4191 1.0388 0.84918 0.59696 1.7467 1.1313 2.6174 1.6998 0.53003 0.34604 1.098 0.60989 1.6398 0.94431 1.5335 0.94644 3.2121 1.7542 4.8564 2.5811 0.53119 0.26718 1.0598 0.48422 1.6083 0.724 0.34994 0.15298 0.72894 0.3338 1.0722 0.50363 0.18994 0.093964 0.37369 0.13583 0.56763 0.22034 0.42038 0.18314 0.8739 0.37884 1.2929 0.56659 0.38751 0.17362 0.76642 0.2876 1.1668 0.44067 0.43155 0.16498 0.88913 0.37076 1.3245 0.5351 0.75656 0.28564 1.5222 0.53702 2.2705 0.81842 0.7774 0.29233 1.5555 0.48694 2.3493 0.75543 1.5384 0.52036 3.176 0.90387 4.7776 1.385 0.47934 0.14401 0.97876 0.21256 1.4506 0.34625 0.23538 0.066681 0.54025 0.054077 0.74106 0.15738 0.081787 0.042054 0.17462 0.13062 0.25229 0.18887 0.125 0.093719 0.22202 0.25052 0.31537 0.37772 0.14941 0.20361 0.30811 0.40457 0.42572 0.64529 0.12186 0.24939 0.15558 0.59567 0.22073 0.88135 0.052307 0.22934-0.020447 0.51645-0.06308 0.67676-0.035888 0.13495-0.023925 0.22809-0.063049 0.36197-0.10187 0.34845-0.25745 0.68631-0.45728 0.94434-0.20712 0.26743-0.71701 0.27411-1.1037 0.17313-0.67645-0.1767-1.4186-0.25235-2.0813-0.4407-0.14166-0.040252-0.2544-0.022522-0.39416-0.062927-0.76849-0.22226-1.6076-0.34906-2.3651-0.56659-0.17291-0.049652-0.31857-0.042725-0.48877-0.094452-0.59799-0.1817-1.2207-0.28561-1.829-0.47214-1.5248-0.46759-3.0866-0.8562-4.541-1.385-0.34009-0.12363-0.65588-0.1875-0.99335-0.31476-2.3871-0.90018-4.7567-1.7676-6.9377-2.8644-0.57391-0.28864-1.1435-0.51703-1.7029-0.81842-1.5883-0.85571-3.1326-1.7417-4.6356-2.6755-0.19748-0.12271-0.38977-0.28027-0.5834-0.40921-0.87311-0.58142-1.7107-1.1732-2.5543-1.7785-0.85101-0.6106-1.6094-1.3419-2.444-1.9673-0.176-0.1319-0.32468-0.30515-0.50455-0.44067-0.052552-0.057709-0.10513-0.11542-0.15768-0.17313-0.19501-0.14716-0.34561-0.34415-0.53607-0.48788-0.45685-0.34479-0.84299-0.79419-1.2456-1.1961-0.38-0.37936-0.79346-0.7496-1.1195-1.1804-0.073578-0.068207-0.14716-0.13641-0.22073-0.20462-0.21182-0.27978-0.48547-0.51038-0.69376-0.78693-0.36356-0.48264-0.79153-0.91687-1.151-1.4007-0.44708-0.60168-0.90781-1.197-1.3402-1.8099-0.43295-0.61365-0.80908-1.2472-1.2141-1.8886-1.0972-1.7377-1.9904-3.6333-2.8224-5.6501-0.30179-0.7316-0.50556-1.5128-0.75684-2.2821-0.1731-0.52994-0.25693-1.0999-0.40997-1.6368-0.039917-0.14014-0.02539-0.2507-0.063049-0.39346-0.080963-0.30667-0.17316-0.68933-0.06308-1.0073 0.049256-0.14224 0.25174-0.34421 0.3942-0.39346 0.099212-0.034302 0.19592-0.008301 0.26804-0.062958zm-7.7418 23.608c0.56082 0.003296 0.81165 0.41574 1.0564 0.73972 0.25366 0.33572 0.59546 0.60611 0.85144 0.9443 0.2102 0.20984 0.42047 0.41971 0.63071 0.62955 0.14322 0.18927 0.32257 0.33774 0.48877 0.50363 0.17133 0.17099 0.32501 0.35629 0.52032 0.50363 0.18921 0.18884 0.37845 0.37775 0.56766 0.56659 0.19424 0.14664 0.34525 0.34387 0.53607 0.48788 0.5903 0.4455 1.0944 1.0055 1.6871 1.448 0.62845 0.46909 1.2193 0.99616 1.8606 1.4479 0.83997 0.59183 1.6776 1.1929 2.5385 1.7627 0.44018 0.29132 0.89087 0.53568 1.3402 0.81839 0.34357 0.21616 0.70047 0.46414 1.0564 0.66104 1.4782 0.81769 2.9749 1.6206 4.5095 2.3922 1.2152 0.61108 2.4979 1.1062 3.7527 1.6683 0.38687 0.17328 0.76651 0.28864 1.1668 0.44067 0.9035 0.34311 1.8536 0.69241 2.7751 1.0387 0.87119 0.32742 1.7969 0.55127 2.6805 0.84988 0.14432 0.048797 0.26715 0.043182 0.40994 0.094452 0.45691 0.164 0.97479 0.26645 1.4506 0.40918 0.23926 0.071778 0.47662 0.070679 0.70953 0.15741 0.51004 0.18988 1.1536 0.76379 1.3402 1.2748 0.32346 0.88532-0.034454 1.8927-0.44147 2.4709-0.12286 0.17453-0.30429 0.46115-0.52036 0.53513-0.34046 0.11655-0.69794-0.005341-1.0091-0.094452-0.40228-0.11517-0.78741-0.13229-1.1826-0.2518-0.73013-0.22082-1.49-0.34149-2.2232-0.56659-1.5353-0.47134-3.0656-0.89505-4.5252-1.4479-3.3794-1.2802-6.4975-2.7819-9.3659-4.5642-1.1907-0.73987-2.3194-1.5737-3.4373-2.3922-0.39804-0.29147-0.75824-0.65021-1.151-0.9443-0.53839-0.40317-0.99631-0.88849-1.5294-1.2906-0.0578-0.062928-0.11563-0.12592-0.17343-0.18884-0.10913-0.096954-0.22806-0.1806-0.33112-0.2833-0.084076-0.089172-0.16818-0.17838-0.25229-0.26755-0.20105-0.1517-0.35968-0.34329-0.53607-0.51938-0.1713-0.17102-0.35696-0.3244-0.50458-0.51938-0.1156-0.11017-0.23126-0.22037-0.34686-0.3305-0.38657-0.51025-0.87613-0.93118-1.2614-1.448-0.090881-0.12189-0.22406-0.22479-0.31534-0.34622-0.37051-0.49283-0.77939-0.96042-1.1353-1.4637-0.40527-0.57315-0.82584-1.1502-1.1983-1.747-0.14676-0.23511-0.25888-0.47543-0.40997-0.70822-0.16571-0.25534-0.29135-0.52359-0.44147-0.80267-0.08902-0.16547-0.21994-0.34924-0.28381-0.5351-0.064881-0.18878-0.08548-0.55426 0.015747-0.72397 0.069091-0.11582 0.23148-0.29794 0.36267-0.34625 0.09848-0.036285 0.1955-0.008148 0.26804-0.062958zm-10.596 11.489c0.63321 0.007813 0.79251 0.47467 1.0564 0.84988 0.42465 0.60376 0.91376 1.1598 1.356 1.747 0.35254 0.46808 0.81274 0.85437 1.1668 1.3221 0.13663 0.13113 0.27332 0.26233 0.40994 0.39346 0.19623 0.25916 0.49719 0.55963 0.75684 0.75543 0.052551 0.057709 0.10513 0.11545 0.15768 0.17313 0.12912 0.12888 0.26273 0.25098 0.40994 0.362 0.068329 0.073425 0.13666 0.14691 0.20499 0.22034 0.35031 0.26446 0.6438 0.60556 0.99335 0.86563 0.83606 0.62198 1.6321 1.3004 2.4913 1.9044 1.8622 1.309 3.9136 2.4017 6.0232 3.4625 0.68942 0.34665 1.4228 0.60361 2.1128 0.9443 0.29425 0.14526 0.59619 0.21817 0.89877 0.34625 0.82697 0.35007 1.7137 0.65512 2.5701 0.97577 1.1852 0.44379 2.4419 0.72244 3.658 1.1332 0.42615 0.14392 0.88062 0.20859 1.2929 0.34625 0.36673 0.12244 0.74237 0.14242 1.1195 0.25183 0.74704 0.2167 1.5794 0.33679 2.3493 0.5351 0.44443 0.11447 0.8949 0.14145 1.3245 0.25183 0.47989 0.12326 0.98248 0.1369 1.4506 0.2518 0.1051 0.010498 0.21024 0.020996 0.31534 0.031494 0.48111 0.12222 1.0403 0.13553 1.5294 0.2518 0.20874 0.049622 0.38888 0.013916 0.59915 0.062958 0.68347 0.15942 1.4636 0.12695 2.1602 0.2833 0.19879 0.044616 0.40567 0.023193 0.5834 0.062958h0.18921c0.23999 0.053436 0.54556 0.041107 0.78836 0.094421h0.20499c0.39694 0.087555 0.87704 0.03833 1.2772 0.12592h0.26804c0.50992 0.11142 1.1229 0.013855 1.6398 0.12592 0.19971 0.005249 0.39944 0.010498 0.59915 0.015747 0.11316 0.024475 0.29291-0.01297 0.42572 0.015717 0.35178 0.075988 0.80542 0.008911 1.1668 0.062957 0.21362 0.031952 0.47183-0.02539 0.66223 0.015747 0.16788 0.036255 0.38785-0.016265 0.53607 0.015748h1.2299c0.97031 0 1.9178-0.027131 2.8539-0.031495 0.44308-0.002075 0.92572-0.09909 1.2929 0.031495 0.20749 0.073761 0.39917 0.25571 0.56763 0.37772 0.37903 0.2745 0.7352 0.66736 0.91452 1.1332 0.054657 0.14191 0.049988 0.26736 0.094604 0.42493 0.071473 0.25241 0.17438 0.64984 0.094605 0.99155-0.05188 0.22226-0.079224 0.49139-0.15768 0.70822-0.12091 0.33426-0.44318 0.43228-0.81989 0.51938-0.13666 0.005249-0.27332 0.010498-0.40997 0.015747-0.58231 0.12704-1.2911 0.015076-1.8763 0.14163-0.11273 0.024383-0.26956-0.004395-0.36267 0.015747-0.2207 0.005249-0.4415 0.010498-0.66223 0.015747-0.21411 0.046143-0.48367-0.020508-0.72528 0.031464-0.20209 0.043487-0.4491 0.031463-0.67801 0.031494h-0.25229c-0.19504 0.04187-0.46838 0.031372-0.67801 0.031463h-0.91449c-0.284 0.0607-0.6792 0.015717-0.99335 0.015748-0.26028 0-0.5885 0.034088-0.81992-0.015748h-0.5361c-0.37314 3.1e-5 -0.74118-6.1e-5 -1.088-0.031463h-0.5361c-0.3063-0.066651-0.70554 0.002594-1.0091-0.062958h-0.36267c-0.22205-0.048492-0.52182-0.015472-0.74106-0.062958h-0.31537c-0.16864-0.037109-0.41464-0.026214-0.58337-0.062957h-0.25229c-0.58441-0.12885-1.257-0.060975-1.829-0.18887-0.15768-0.010498-0.31537-0.020965-0.47305-0.031463-0.74204-0.16876-1.5638-0.14298-2.2863-0.31479-0.1965-0.046723-0.35812-0.015625-0.55188-0.062958-0.67169-0.16409-1.4116-0.20935-2.0655-0.37772-0.10785-0.027771-0.17612-0.003326-0.28381-0.031464-0.30933-0.08081-0.67191-0.13351-0.9776-0.22034-0.14227-0.040435-0.25208-0.022064-0.3942-0.062957-1.0628-0.30603-2.1696-0.4661-3.2166-0.78693-1.8541-0.56818-3.728-1.0765-5.4082-1.8257-0.38055-0.16968-0.76007-0.26807-1.1353-0.44067-0.66385-0.30539-1.3487-0.58377-2.0025-0.91284-1.023-0.51492-2.0231-1.0566-3.0116-1.6053-0.69528-0.38599-1.3643-0.85751-2.0182-1.2906-0.53677-0.35544-1.0551-0.70349-1.5768-1.0702-0.51328-0.36084-0.9924-0.7753-1.4979-1.1489-0.51416-0.38-0.95493-0.85797-1.4664-1.2433-0.19424-0.14639-0.3584-0.38913-0.55185-0.53512-0.47711-0.36002-0.87234-0.8392-1.2929-1.2591-1.7952-1.7922-3.3198-3.8513-4.6829-6.0751-0.31464-0.51324-0.54352-1.0487-0.81992-1.6053-0.12592-0.2536-0.25778-0.59592-0.12613-0.94434 0.041962-0.11105 0.26715-0.33582 0.37842-0.37772 0.091278-0.034363 0.19876-0.010864 0.26804-0.062958zm104.35 15.518c0.57404 0.006409 0.7511 0.38739 0.99335 0.72397 0.23932 0.33249 0.51117 0.64447 0.75684 0.9758 0.52142 0.70322 1.1762 1.303 1.7029 1.9988 0.18378 0.2428 0.44452 0.43085 0.63068 0.67676 0.073577 0.068176 0.14719 0.13638 0.22076 0.20459 0.25595 0.33804 0.60019 0.61487 0.89874 0.91284 0.25751 0.25702 0.51508 0.51416 0.77261 0.77118 0.40524 0.30588 0.73337 0.73547 1.1353 1.0388 0.22964 0.17331 0.4202 0.39679 0.64645 0.56659 0.74551 0.55942 1.423 1.2103 2.1759 1.7627 1.1342 0.83212 2.2702 1.6719 3.4531 2.4552 1.7785 1.1778 3.6664 2.2412 5.5817 3.2736 1.088 0.58646 2.2284 1.0846 3.3427 1.6368 0.39621 0.19632 0.81174 0.34387 1.1983 0.5351 0.14325 0.070862 0.28244 0.086579 0.42572 0.15741 0.61667 0.30475 1.3039 0.53552 1.9394 0.81839 0.16339 0.072723 0.30542 0.093842 0.47302 0.15738 0.61865 0.23462 1.2734 0.47369 1.9079 0.70825 0.35669 0.13184 0.77997 0.18301 1.1037 0.36197 0.81778 0.45206 1.5722 1.421 1.151 2.707-0.1499 0.45776-0.40402 0.81375-0.66223 1.1647-0.1781 0.24204-0.40076 0.33829-0.72531 0.44067-0.079376 0.025024-0.43317-0.10004-0.50455-0.12592-0.43451-0.15756-0.87146-0.23236-1.3087-0.37772-2.2588-0.75104-4.4286-1.5457-6.512-2.4552-3.3725-1.4723-6.3948-3.3509-9.2397-5.3511-0.82767-0.58191-1.5748-1.27-2.3809-1.8729-0.23633-0.17676-0.43893-0.40216-0.67801-0.58231-0.047272-0.05246-0.094604-0.10495-0.14191-0.15738-0.32108-0.24213-0.57904-0.54578-0.89874-0.78696-0.14188-0.14685-0.28381-0.29379-0.42572-0.44067-0.16092-0.1214-0.28494-0.26868-0.42572-0.40918-0.14075-0.14053-0.28833-0.26431-0.40994-0.42496-0.099854-0.094421-0.19974-0.18887-0.29959-0.2833-0.18051-0.18036-0.36588-0.3782-0.52032-0.58234-0.094605-0.094421-0.18921-0.18887-0.28381-0.2833-0.20285-0.26794-0.46258-0.49039-0.66223-0.75543-0.52069-0.69122-1.0882-1.3319-1.5925-2.046-0.45306-0.64148-0.95093-1.278-1.3718-1.9516-0.53915-0.86298-1.0328-1.7531-1.5137-2.6756-0.21115-0.40503-0.45068-0.91257-0.59915-1.3535-0.065979-0.19598-0.085449-0.54709 0.015778-0.72397 0.068908-0.12048 0.22818-0.29559 0.36264-0.34625 0.091248-0.034363 0.19882-0.010834 0.26804-0.062958z" fill="#3b434f" fill-rule="evenodd" opacity=".2"/>
<path d="m263.89 274.33h1.4933c3.0875 4.193 4.3436 10.636 5.9733 16.213 0.50507 1.7283 0.015076 4.7513-0.42667 5.9733-1.6178 4.4755-6.6976 4.3952-10.88 6.4-1.1232 0.53845-1.9587 1.4678-3.4133 1.7067-0.9483-0.83533-2.0933-0.99939-2.56-2.3467-1.1523-1.5867 0.33282-2.5776 1.4933-3.2 2.1062-1.1296 8.6082-2.2429 9.3867-4.2667 0.96323-1.0957 0.32275-4.3902 0-5.5467-0.8266-2.9622-1.2234-5.4351-2.3466-8.1067-0.74615-1.7745-2.0562-3.6455-1.28-5.76 0.64319-0.27618 2.0333-0.59021 2.56-1.0666z" fill="#3b434f" fill-rule="evenodd"/>
<path d="m209.07 238.07c4.7128 0 8.5333 3.8205 8.5333 8.5333 0 4.7128-3.8205 8.5333-8.5333 8.5333-4.7128 0-8.5334-3.8205-8.5334-8.5333 0-4.7128 3.8205-8.5333 8.5334-8.5333z" fill="#3b434f"/>
<path d="m303.79 238.07c4.7128 0 8.5333 3.8205 8.5333 8.5333 0 4.7128-3.8205 8.5333-8.5333 8.5333-4.7128 0-8.5333-3.8205-8.5333-8.5333 0-4.7128 3.8205-8.5333 8.5333-8.5333z" fill="#3b434f"/>
<path d="m307.63 269.64c5.891 0 10.667 4.7756 10.667 10.667s-4.7756 10.667-10.667 10.667c-5.8911 0-10.667-4.7756-10.667-10.667s4.7756-10.667 10.667-10.667z" fill="#f5f3ef"/>
<path d="m204.37 269.64c5.891 0 10.667 4.7756 10.667 10.667s-4.7756 10.667-10.667 10.667c-5.8911 0-10.667-4.7756-10.667-10.667s4.7756-10.667 10.667-10.667z" fill="#f4f3ef"/>
</svg>
