<?xml version="1.0" encoding="UTF-8"?>
<svg width="1441.6pt" height="638.78pt" preserveAspectRatio="xMidYMid" version="1.0" viewBox="0 0 1441.6 638.78" xmlns="http://www.w3.org/2000/svg">
<g transform="matrix(.1 0 0 -.1 -41.196 682.69)">
<path d="m6575 6811c-27-5-77-16-111-26-50-14-68-15-100-5-21 7-111 14-199 17-235 8-336-22-343-100-2-28-10-40-35-56-41-25-154-142-194-201-45-67-110-199-139-286-63-187-69-321-25-530 47-221 64-364 64-534 1-170-14-254-58-338-39-76-47-82-98-82-24 0-76-9-113-21-362-111-570-621-612-1504l-7-140-38 50c-54 72-112 197-137 298-40 163-43 375-10 727 15 156 12 364-5 438-19 79-36 113-88 169-54 59-111 86-232 112-125 27-164 42-234 91-109 77-187 209-256 435-84 278-108 329-168 365-79 49-210-2-338-129-122-123-163-232-162-436 1-143 8-186 77-505 75-341 80-377 80-530 0-105-5-154-22-220-88-345 89-757 564-1310 114-132 408-431 569-577 325-296 797-676 1095-882 130-90 183-141 215-205 32-63 31-97-1-135-69-83-294-65-567 45-426 173-713 387-957 714-184 247-239 316-295 368-110 102-220 160-380 199-64 16-194 17-1483 20-1350 3-1413 3-1410-14s73-18 1423-23l1420-5 80-23c220-62 316-140 535-437 219-295 364-442 585-592 211-143 545-289 753-329 280-54 428 62 318 250-35 59-93 109-346 294-715 523-1342 1103-1698 1570-338 444-458 786-381 1085 16 61 21 113 22 202 0 146-10 217-73 500-69 312-80 375-86 505-10 205 31 327 150 445 117 117 236 164 302 120 36-23 75-113 128-290 57-190 97-285 164-380 87-125 191-188 366-221 161-31 245-97 287-226 21-63 24-92 23-213 0-77-8-232-18-345-21-232-17-489 8-600 33-146 96-278 180-380l46-55v-110c0-132 16-369 31-445 26-140 94-296 189-439 70-104 228-274 339-363 99-80 280-200 292-192 16 10 9 25-41 87-71 87-152 253-200 409-185 597-241 709-502 999l-68 77v114c0 417 84 881 211 1155 95 207 250 354 411 387 35 7 65 12 67 10 1-1-7-13-19-26-17-18-21-31-17-66 10-88 108-199 327-370 165-128 237-191 357-306l93-89v-86c0-147 38-247 137-360 24-27 43-51 43-54s-51-35-113-71c-362-210-529-429-544-716-12-222 66-445 271-770 119-189 188-281 286-379 150-151 303-244 466-283 59-14 140-46 239-94 175-84 330-144 543-208 204-62 416-136 592-206 269-107 349-121 473-79 66 22 627 305 736 371 91 56 276 180 396 266 55 40 105 70 111 68 7-3 92-67 190-143 222-172 454-334 536-376 79-39 161-43 225-9 113 59 453 372 905 834 386 394 475 477 564 521 129 65 42 61 1424 67 1185 5 1255 6 1258 23 3 16-59 17-1197 17-1343 0-1339 0-1493-69-86-39-188-132-558-509-444-452-746-735-888-830-107-72-182-53-400 99-248 174-532 391-532 408 0 5 48 45 108 89 122 92 270 206 394 304 107 85 152 104 302 129 145 24 197 40 254 79 24 16 68 38 98 49 94 36 127 63 167 138 21 41 60 91 96 126 69 66 87 109 70 169-5 21-14 40-20 43-5 4 5 27 25 54 50 68 54 93 19 121-22 18-37 21-75 18-50-5-112-38-291-156-54-35-101-62-103-59-10 9 99 88 171 124 94 47 134 79 151 120 12 28 12 39 2 60-25 51-71 47-221-21l-58-26-9 24c-12 31-27 36-72 20-21-7-66-16-100-20-54-6-80-17-178-76-127-76-128-77-261-278-81-122-96-140-157-180-112-73-392-225-585-319-241-116-243-117-264-100-199 157-739 620-766 656-89 123-68 147 268 308 110 53 234 114 276 135l76 38 64-42c232-155 347-193 439-146 43 22 293 189 385 258 87 65 193 171 217 216 26 50 18 75-36 123l-45 39 52 30c29 17 95 47 147 68 195 77 288 148 276 210-8 41-36 62-193 146-156 84-193 120-193 184 0 52 29 186 40 186 4 0 92-41 196-91 194-94 245-118 469-221 446-206 688-313 731-322s78 7 103 47c39 64 367 1002 547 1567 114 359 215 684 223 719 12 54-8 95-57 120-22 11-239 70-483 130-969 239-2586 635-2940 721-205 49-231 42-249-66-85-506-260-1686-260-1755 0-55 24-76 171-150 182-91 626-303 838-399 135-62 185-90 191-106 10-25 0-70-31-141l-19-46-48 6c-26 3-117 36-202 73-143 62-161 68-225 68-41 0-93-8-125-18-92-31-280-124-280-138 0-8 16-22 35-31 141-67 863-530 1148-736l77-56-40-34c-43-35-134-149-218-271-110-161-136-170-338-120-148 37-253 48-319 31l-45-11-133 96c-168 123-414 321-637 513-267 230-285 236-722 250-235 8-298 13-371 31-49 12-87 23-85 25 6 6 325 65 410 75 98 12 150 6 223-23 37-15 73-21 140-21 81 0 99 3 182 37 51 20 124 41 162 47 96 13 121 26 121 61 0 48-44 63-161 55-54-3-106-9-116-12-46-17 8 15 71 41 102 42 170 37 250-17 64-43 126-59 151-38 24 20 18 41-29 85-40 39-42 43-25 54 26 15 24 53-3 78-13 11-54 40-93 64-69 43-71 44-170 47-92 3-103 1-145-23-153-88-339-155-451-162-81-6-286 9-434 32-49 8-160 19-245 25s-204 15-265 20c-139 12-135 12-135-2 0-7 11-40 25-73 31-76 33-163 5-237-11-29-49-90-84-134-86-109-100-137-92-186 13-78 99-220 291-478 59-80 116-163 126-185 11-22 35-103 54-180 72-284 206-483 430-636 126-87 161-126 191-222 25-80 11-185-45-334-66-174-49-217 63-153 123 70 201 171 226 292l11 58 81-66c44-36 138-104 208-150 70-47 153-108 185-137l58-52-27-39c-33-49-40-75-34-131 10-80 71-174 165-250 81-66 87-63 80 42-7 106-43 225-92 307-19 32-35 62-35 66 0 13 114 68 196 93 44 14 131 35 193 47 113 21 249 64 400 126 71 30 86 33 101 22 10-7 113-91 229-186l212-174-113-81c-242-173-409-274-708-429-360-185-420-210-510-211-74-1-105 8-350 103-184 71-413 150-640 220-157 49-326 114-460 178l-95 45 95 13c107 15 242 58 266 86 23 25 5 45-49 53-161 25-350 99-490 192-147 97-304 281-416 486-24 43-48 76-54 74-18-6-13-148 7-239 44-198 202-416 406-559 33-23 59-44 57-46-6-6-159 59-211 90-114 67-266 209-366 341-153 202-326 515-376 681-25 81-28 105-28 240 0 140 2 155 28 225 38 101 122 225 202 299 71 65 202 157 299 211 82 45 125 78 125 96 0 8-25 44-56 81-75 88-112 168-126 276-6 48-9 90-5 93 7 8 37-27 135-155 76-101 99-117 94-66-1 17-5 102-7 189-6 181-4 176-107 253-27 19-48 40-48 46 1 19 102 212 138 262 50 71 83 80 212 64 173-22 236-19 295 15 106 62 259 248 341 416 53 109 65 163 73 325l8 150 46 100c58 127 72 197 64 333-9 176-37 325-82 433-5 13 2 18 37 23 65 10 141 49 187 96 50 52 52 74 8 95-18 8-97 81-176 160-201 204-299 275-451 325-72 24-222 34-305 21zm254-47c153-38 278-123 471-319 69-70 142-140 163-155l37-28-31-31c-44-44-102-72-164-78-50-5-54-4-71 23-78 123-192 207-362 265-92 32-132 22-132-30 0-37 45-88 126-141 74-48 265-135 323-146 20-4 37-16 45-33 51-98 90-340 84-513-3-95-8-123-31-175-84-194-80-178-88-338-8-170-20-215-95-354-79-146-228-317-308-355-42-20-27-20-308 1-61 4-97 2-118-7-49-20-102-90-167-219l-61-120-118 90c-168 127-288 241-398 378-93 117-158 181-183 181-18 0-16 7 7 39 10 15 31 63 46 107 25 70 28 97 32 244 5 189-10 327-60 565-46 218-40 351 23 536 63 184 191 372 307 453l40 27 48-51c136-145 275-446 365-789 30-117 29-130-9-131-35 0-143-69-203-129-99-99-155-223-166-366-17-236 159-508 366-569 62-18 174-21 241-5 82 19 182 74 242 135 110 111 158 245 158 444 0 263-80 413-280 528l-85 49-2 224c-2 244-12 345-48 456-44 140-108 211-237 265-104 44-207 49-305 16-40-13-73-21-73-17 0 19 46 49 94 61 77 19 315 16 398-6 66-17 69-17 130 3 35 11 77 22 93 24 76 10 204 6 264-9zm2119-69c144-33 725-175 2272-555 1252-308 1220-299 1234-335 8-21 3-39-51-215-232-751-633-1935-701-2069-36-74-49-80-113-57-101 35-741 328-1111 508-217 105-267 123-289 101-13-13-49-166-49-206 1-45 33-110 67-135 16-11 85-51 153-87 127-68 170-99 170-120 0-41-106-108-274-175-44-17-106-47-138-66l-59-34-132 94c-261 184-654 440-935 607l-162 97 77 37c135 65 182 79 263 79 70 1 83-3 205-58 71-32 158-65 193-74 84-22 108-10 141 73s38 144 15 172c-11 13-125 72-254 131-581 270-919 439-930 466-9 24 38 374 119 896 154 992 146 950 172 950 6 0 58-11 117-25zm-2767-25c69-24 131-60 166-99 95-101 142-340 129-661-8-192-14-178 106-244 187-103 260-242 262-496 1-128-12-194-55-286-109-232-397-336-612-222-107 57-216 206-252 343-58 225 56 489 257 590 93 46 108 46 108-3 0-34-4-39-45-61-63-34-141-120-177-198-37-78-48-190-28-282 17-78 72-189 117-235 95-97 245-111 409-36 153 69 213 181 201 374-16 267-214 526-402 526h-52l-6 38c-4 20-20 86-37 145-89 311-243 628-360 744l-43 42 29 12c60 23 81 27 152 28 49 1 93-6 133-19zm775-305c91-44 182-115 226-177l21-30-24 7c-56 16-199 82-263 119-71 43-146 108-146 127 0 22 94-1 186-46zm-497-745c160-73 302-370 271-566-18-114-45-158-125-209-102-66-231-91-326-65-90 25-176 148-206 295-18 89-9 164 31 251 29 63 119 158 171 180 41 17 59 53 50 101l-6 33h48c26 0 68-9 92-20zm-998-1013c19-12 77-76 130-142 118-147 250-274 415-397 104-77 124-96 119-113-4-11-14-46-22-78l-16-59-86 85c-106 104-199 184-361 309-157 121-252 219-286 293l-26 57 33 34c39 40 54 42 100 11zm2923-417c97-62 109-71 98-82-5-5-25-3-50 8-23 9-50 13-59 9-20-7-6-22 101-103 94-72 50-78-56-8-45 30-65 37-128 42-74 6-76 6-192-46-95-42-118-57-118-73 0-19 4-20 123-12 147 9 193 8 215-4 15-8 13-11-11-20-16-6-43-11-60-11-18 0-90-20-162-45-155-54-208-57-321-20-100 33-190 33-381-1-81-14-193-34-248-43-123-22-135-38-48-71 139-52 203-61 503-70 418-12 422-14 671-227 289-247 511-426 694-557l77-55-305-150c-258-126-309-155-333-186-55-72-27-154 89-261 35-32 208-178 385-324 176-146 321-267 321-270 1-7-224-93-309-118-36-11-105-27-153-36-136-26-255-64-335-106l-73-40-47 45c-26 25-120 96-210 157-143 97-290 215-300 240-2 4-12 8-23 8-16 0-19-7-19-53 0-112-52-216-143-285-66-49-115-78-122-70-3 3 10 47 29 98 51 131 66 197 66 289 0 148-44 220-204 333-175 125-297 269-366 434-18 43-49 144-69 224-40 162-19 126-276 480-118 163-185 285-185 335 0 24 12 49 46 92 162 208 188 311 119 475-6 16 0 17 77 12 201-13 460-36 548-49 52-8 158-20 236-26 126-11 151-11 229 5 107 21 233 68 363 137l97 51 79-6c70-6 87-12 140-46zm-2130-312 40-35v-136c1-74 1-135 0-134s-40 50-88 109l-86 108 10 47c6 27 15 63 21 81l11 32 26-19c15-11 45-35 66-53zm3855-716c38-32 43-42 38-64-10-39-95-127-205-210-94-72-345-244-389-267-41-21-114-13-183 20-80 38-250 140-250 151 0 20 165 7 278-21 158-39 193-44 238-32 50 13 112 77 200 206 61 89 206 255 223 255 3 0 26-17 50-38zm-5408-308c105-110 221-277 292-419 40-81 92-228 157-444 66-221 116-345 173-433 20-32 34-58 31-58-19 0-215 159-300 244-131 131-212 242-284 391-71 145-96 244-110 425-9 124-18 350-13 350 1 0 26-25 54-56zm6384-255c11-35-24-69-134-129-157-85-214-138-191-179 6-12 19-21 29-21s78 39 152 87c176 113 252 149 285 134s30-29-16-85c-22-26-40-51-40-55 0-3 10-24 22-47 30-56 20-82-63-170-39-41-79-94-90-118-25-57-58-84-144-120-39-16-89-42-112-58-58-39-79-46-218-68-68-11-148-29-178-40-56-21-69-30-314-221-81-63-196-152-254-197l-106-81-221 180c-122 99-222 183-222 187s49 29 108 55c192 87 653 336 754 408 15 11 74 91 131 177s113 165 124 175 69 47 129 82c90 54 117 65 154 65 25 1 62 7 83 14 23 8 40 10 43 4 8-13 10-12-84-48-105-40-211-119-212-157-1-52 259 60 305 131 9 14 31 30 48 35 18 6 68 27 112 46 93 41 111 43 120 14zm-351-114c-27-21-145-78-150-72-6 6 41 37 106 68 57 28 78 30 44 4zm-4458-800c101-152 250-294 402-384 91-54 205-98 337-131l110-26-80-27c-174-56-272-62-344-20-81 47-193 134-266 207-141 142-229 308-249 476l-7 55 22-35c12-19 46-71 75-115zm2099-525c41-82 85-280 62-280-5 0-34 26-64 57-97 99-128 207-82 283l21 34 20-24c11-14 30-45 43-70z" stroke="#000" stroke-width="20" style="mix-blend-mode:normal"/>
</g>
</svg>
